# xmcd
#
# Track frame offsets:
#	150
#	16935
#	37718
#	59839
#	78805
#	96992
#	136967
#	157951
#	185673
#	202986
#	226370
#	245513
#	262333
#	283928
#	304116
#	321964
#
# Disc length: 4571
#
# Revision: 1
# Processed by: cddbd v1.5.1PL0 Copyright (c) Steve Scherf et al.
# Submitted via: uFREEDB 1.6.0
# Normalized: r0:DSWAP,DSETVAR1,TDELIM( - )
#
DISCID=e011d910
DTITLE=Various Artist - Sade/Sting
DYEAR=1900
DGENRE=Blues
TTITLE0=Sade - Please Send Me Someone To Love
TTITLE1=Sade - By Your Side
TTITLE2=Sade - King Of Sorrow
TTITLE3=Sade - Color Of Love
TTITLE4=Sade - No Ordinary Love
TTITLE5=Sade - Smooth Operator
TTITLE6=Sade - The Sweetest Taboo
TTITLE7=Sade - Turn My Back On You
TTITLE8=Sade - King Of Sorrow remix
TTITLE9=Sting - It's Probably Me
TTITLE10=Sting - I'll Be Watching You
TTITLE11=Sting - Fields Of Gold
TTITLE12=Sting - Desert Rose
TTITLE13=Sting - Englishman In New York
TTITLE14=Sting - Mad About You
TTITLE15=Sting - Shape Of My Heart
EXTD=
EXTT0=
EXTT1=
EXTT2=
EXTT3=
EXTT4=
EXTT5=
EXTT6=
EXTT7=
EXTT8=
EXTT9=
EXTT10=
EXTT11=
EXTT12=
EXTT13=
EXTT14=
EXTT15=
PLAYORDER=
